<svg xmlns="http://www.w3.org/2000/svg" xmlns:v="https://svgstorm.com"
viewBox = "0 0 200 203"
width="200"
height="203">
<g fill="None" fill-opacity="0.0" stroke="#000000" stroke-opacity="0.00" stroke-width="0.3"><path d="
M 0.00 203.00 
L 200.00 203.00
L 200.00 0.00
L 0.00 0.00
L 0.00 203.00
M 112.00 10.00 
C 112.50 10.00 113.50 10.03 114.00 10.00
C 116.12 9.89 117.56 10.69 119.00 11.00
C 127.46 11.87 135.46 15.14 143.00 19.00
C 145.27 20.16 147.09 21.80 149.00 23.00
C 154.11 25.50 158.53 29.18 163.00 33.00
C 164.87 34.60 166.44 36.18 168.00 38.00
C 176.66 48.13 183.06 57.54 187.00 70.00
C 187.57 71.28 188.48 72.44 189.00 74.00
C 190.73 79.19 191.84 84.34 192.00 90.00
C 192.25 91.58 192.94 93.81 193.00 96.00
C 193.11 99.98 193.11 104.02 193.00 108.00
C 192.94 110.22 192.24 112.45 192.00 114.00
C 191.50 131.99 181.51 149.53 170.00 163.00
C 167.81 165.56 165.51 167.85 163.00 170.00
C 153.26 178.32 143.19 185.70 131.00 189.00
C 129.52 189.56 127.81 190.50 126.00 191.00
C 122.32 192.01 118.96 192.79 115.00 193.00
C 112.43 193.42 109.21 194.00 106.00 194.00
C 105.50 194.00 104.50 194.00 104.00 194.00
C 101.19 195.20 98.76 195.17 96.00 194.00
C 95.50 194.00 94.50 194.00 94.00 194.00
C 75.36 194.00 56.08 186.03 42.00 174.00
C 36.74 169.51 31.26 164.39 27.00 159.00
C 22.40 153.18 18.47 146.87 16.00 140.00
C 15.35 138.70 14.57 137.54 14.00 136.00
C 11.64 129.67 9.60 123.86 9.00 117.00
C 8.73 115.60 7.90 114.04 8.00 112.00
C 8.03 111.50 8.00 110.50 8.00 110.00
C 6.20 105.78 6.23 97.16 8.00 93.00
C 8.00 92.50 8.03 91.50 8.00 91.00
C 7.89 88.91 8.73 87.40 9.00 86.00
C 10.38 70.04 18.59 54.18 29.00 42.00
C 32.37 38.06 36.11 34.33 40.00 31.00
C 42.27 29.06 44.39 27.32 47.00 26.00
C 48.06 25.20 48.92 24.70 50.00 24.00
C 51.41 23.09 52.05 21.53 54.00 21.00
C 54.47 20.87 55.00 21.00 55.00 21.00
C 56.62 18.41 59.38 18.03 62.00 17.00
C 70.80 13.55 79.20 10.07 89.00 10.00
C 90.25 9.80 92.15 9.07 94.00 9.00
C 97.97 8.84 102.03 8.89 106.00 9.00
C 108.51 9.07 110.07 9.23 112.00 10.00 Z"/>
</g>
<g fill="None" fill-opacity="0.0" stroke="#C9C9D7" stroke-opacity="0.15" stroke-width="0.3"><path d="
M 89.00 10.00 
C 90.67 9.99 92.33 10.00 94.00 10.00
C 94.15 9.95 94.00 9.00 94.00 9.00
C 92.15 9.07 90.25 9.80 89.00 10.00 Z"/>
</g>
<g fill="None" fill-opacity="0.0" stroke="#64638B" stroke-opacity="0.45" stroke-width="0.3"><path d="
M 94.00 10.00 
C 98.00 10.00 102.00 10.00 106.00 10.00
C 105.90 9.98 106.00 9.00 106.00 9.00
C 102.03 8.89 97.97 8.84 94.00 9.00
C 94.00 9.00 94.15 9.95 94.00 10.00 Z"/>
</g>
<g fill="None" fill-opacity="0.0" stroke="#C3C3D7" stroke-opacity="0.16" stroke-width="0.3"><path d="
M 106.00 10.00 
C 108.00 10.00 110.00 10.00 112.00 10.00
C 110.07 9.23 108.51 9.07 106.00 9.00
C 106.00 9.00 105.90 9.98 106.00 10.00 Z"/>
</g>
<g fill="None" fill-opacity="0.0" stroke="#2D2C65" stroke-opacity="0.98" stroke-width="0.3"><path d="
M 62.00 17.00 
C 59.79 18.18 57.55 20.00 55.00 21.00
C 55.00 21.00 54.47 20.87 54.00 21.00
C 52.77 22.69 51.58 22.81 50.00 24.00
C 48.75 24.94 48.45 25.27 47.00 26.00
C 44.39 27.32 42.27 29.06 40.00 31.00
C 36.41 34.59 32.54 38.46 29.00 42.00
C 18.59 54.18 10.38 70.04 9.00 86.00
C 8.81 88.15 8.58 89.38 8.00 91.00
C 8.03 91.50 8.00 92.50 8.00 93.00
C 8.00 98.67 8.00 104.33 8.00 110.00
C 8.00 110.50 8.03 111.50 8.00 112.00
C 8.57 113.59 8.82 114.92 9.00 117.00
C 9.60 123.86 11.64 129.67 14.00 136.00
C 14.68 137.33 15.43 138.41 16.00 140.00
C 18.47 146.87 22.40 153.18 27.00 159.00
C 31.65 164.03 37.19 169.19 42.00 174.00
C 56.08 186.03 75.36 194.00 94.00 194.00
C 97.40 193.67 101.92 193.00 106.00 193.00
C 108.99 193.00 112.02 193.16 115.00 193.00
C 118.96 192.79 122.32 192.01 126.00 191.00
C 127.65 190.35 128.99 189.54 131.00 189.00
C 143.19 185.70 153.26 178.32 163.00 170.00
C 165.26 167.74 167.79 165.21 170.00 163.00
C 181.51 149.53 191.50 131.99 192.00 114.00
C 192.06 112.00 192.00 110.00 192.00 108.00
C 192.00 104.00 192.00 100.00 192.00 96.00
C 192.00 94.00 192.06 92.00 192.00 90.00
C 191.84 84.34 190.73 79.19 189.00 74.00
C 188.38 72.67 187.52 71.63 187.00 70.00
C 183.06 57.54 176.66 48.13 168.00 38.00
C 166.41 36.41 164.55 34.55 163.00 33.00
C 158.53 29.18 154.11 25.50 149.00 23.00
C 146.70 21.87 145.01 20.39 143.00 19.00
C 135.46 15.14 127.46 11.87 119.00 11.00
C 116.88 10.78 115.61 10.58 114.00 10.00
C 113.50 10.03 112.50 10.00 112.00 10.00
C 110.00 10.00 108.00 10.00 106.00 10.00
C 102.00 10.00 98.00 10.00 94.00 10.00
C 92.33 10.00 90.67 9.99 89.00 10.00
C 79.20 10.07 70.80 13.55 62.00 17.00
M 109.00 53.00 
C 113.60 54.51 118.46 55.39 123.00 57.00
C 125.32 57.83 129.15 58.61 129.00 62.00
C 127.00 62.00 125.00 62.00 123.00 62.00
C 121.18 62.38 118.86 62.00 117.00 62.00
C 114.00 62.00 111.00 62.00 108.00 62.00
C 106.33 62.00 104.67 62.00 103.00 62.00
C 102.50 62.00 102.00 62.00 102.00 62.00
C 98.64 64.69 94.42 67.21 92.00 71.00
C 91.90 71.48 92.00 72.00 92.00 72.00
C 92.00 76.30 91.71 80.71 92.00 85.00
C 92.46 91.80 95.93 97.43 97.00 104.00
C 97.08 104.49 97.00 105.00 97.00 105.00
C 98.81 107.11 99.94 110.02 100.00 113.00
C 96.25 113.04 91.94 112.69 89.00 111.00
C 88.50 111.02 87.50 110.97 87.00 111.00
C 83.11 111.27 79.11 110.36 76.00 109.00
C 75.50 109.03 75.00 109.00 75.00 109.00
C 72.56 109.26 70.74 108.41 69.00 108.00
C 66.49 107.41 65.53 108.42 64.00 106.00
C 62.86 104.20 62.20 97.18 62.00 95.00
C 61.02 90.36 60.06 83.57 62.00 79.00
C 62.00 78.50 62.02 77.50 62.00 77.00
C 61.91 74.64 62.14 72.42 64.00 71.00
C 64.09 70.52 64.00 70.00 64.00 70.00
C 64.55 67.66 65.63 65.05 67.00 63.00
C 68.54 60.68 70.71 58.48 73.00 57.00
C 74.20 56.23 75.67 55.47 77.00 55.00
C 77.44 54.84 78.00 55.00 78.00 55.00
C 85.29 48.75 100.82 50.31 109.00 53.00
M 112.00 71.00 
C 112.50 71.00 113.00 71.00 113.00 71.00
C 115.75 71.06 118.72 72.48 121.00 74.00
C 123.30 75.53 125.55 77.70 127.00 80.00
C 128.12 81.09 128.80 83.52 129.00 85.00
C 129.07 85.49 129.00 86.00 129.00 86.00
C 132.97 91.37 126.93 98.88 121.00 99.00
C 120.50 99.01 120.00 99.00 120.00 99.00
C 117.93 100.53 114.03 100.50 112.00 99.00
C 111.50 99.00 111.00 99.00 111.00 99.00
C 108.66 98.45 106.05 97.37 104.00 96.00
C 102.13 94.76 99.99 93.02 99.00 91.00
C 98.80 90.60 99.00 90.00 99.00 90.00
C 98.74 88.08 97.62 86.80 97.00 85.00
C 95.46 80.51 96.03 75.65 101.00 73.00
C 102.54 72.18 105.25 71.49 107.00 71.00
C 108.91 70.46 110.01 69.25 112.00 71.00
M 145.00 87.00 
C 145.68 88.46 146.40 90.41 147.00 92.00
C 147.94 93.83 149.07 94.45 149.00 97.00
C 148.99 97.50 149.00 98.00 149.00 98.00
C 151.38 101.21 149.79 107.76 149.00 111.00
C 148.81 112.54 148.41 114.45 148.00 116.00
C 146.61 121.22 143.35 125.76 140.00 130.00
C 137.93 132.62 135.64 135.04 133.00 137.00
C 131.08 138.42 129.06 139.86 127.00 141.00
C 125.82 141.65 124.29 142.27 123.00 143.00
C 118.51 146.20 113.53 149.39 108.00 151.00
C 103.61 152.28 99.33 153.34 95.00 155.00
C 91.47 156.35 87.24 158.02 83.00 158.00
C 82.87 155.05 80.12 152.98 80.00 150.00
C 79.89 149.53 80.00 149.00 80.00 149.00
C 78.55 147.19 77.56 145.40 77.00 143.00
C 76.89 142.53 77.00 142.00 77.00 142.00
C 75.50 140.13 74.76 138.36 74.00 136.00
C 71.72 128.87 68.53 122.11 66.00 115.00
C 65.34 113.60 62.96 112.51 65.00 111.00
C 65.02 110.90 66.00 111.00 66.00 111.00
C 69.95 110.57 72.86 112.11 76.00 113.00
C 78.40 113.40 80.39 113.89 83.00 114.00
C 84.99 114.09 87.01 114.00 89.00 114.00
C 93.00 114.00 97.00 114.00 101.00 114.00
C 103.32 114.00 105.69 114.15 108.00 114.00
C 112.06 113.74 115.26 112.38 119.00 111.00
C 121.22 109.88 123.46 108.00 126.00 107.00
C 126.43 106.83 127.00 107.00 127.00 107.00
C 129.18 103.88 133.42 101.10 135.00 98.00
C 135.73 96.16 135.87 95.06 136.00 93.00
C 136.13 91.02 136.00 88.99 136.00 87.00
C 136.00 86.50 136.02 85.50 136.00 85.00
C 134.49 82.77 134.46 81.85 134.00 79.00
C 133.77 77.61 132.51 74.64 134.00 74.00
C 135.39 73.40 138.80 78.82 140.25 79.75 C 141.70 80.68 144.19 85.28 145.00 87.00 Z"/>
</g>
<g fill="None" fill-opacity="0.0" stroke="#BCBBCE" stroke-opacity="0.20" stroke-width="0.3"><path d="
M 119.00 11.00 
C 117.56 10.69 116.12 9.89 114.00 10.00
C 115.61 10.58 116.88 10.78 119.00 11.00 Z"/>
</g>
<g fill="None" fill-opacity="0.0" stroke="#BFBFD2" stroke-opacity="0.15" stroke-width="0.3"><path d="
M 55.00 21.00 
C 57.55 20.00 59.79 18.18 62.00 17.00
C 59.38 18.03 56.62 18.41 55.00 21.00 Z"/>
</g>
<g fill="None" fill-opacity="0.0" stroke="#999AB7" stroke-opacity="0.26" stroke-width="0.3"><path d="
M 149.00 23.00 
C 147.09 21.80 145.27 20.16 143.00 19.00
C 145.01 20.39 146.70 21.87 149.00 23.00 Z"/>
</g>
<g fill="None" fill-opacity="0.0" stroke="#B1B2C5" stroke-opacity="0.18" stroke-width="0.3"><path d="
M 50.00 24.00 
C 51.58 22.81 52.77 22.69 54.00 21.00
C 52.05 21.53 51.41 23.09 50.00 24.00 Z"/>
</g>
<g fill="None" fill-opacity="0.0" stroke="#8A8CAD" stroke-opacity="0.35" stroke-width="0.3"><path d="
M 47.00 26.00 
C 48.45 25.27 48.75 24.94 50.00 24.00
C 48.92 24.70 48.06 25.20 47.00 26.00 Z"/>
</g>
<g fill="None" fill-opacity="0.0" stroke="#ADADC2" stroke-opacity="0.14" stroke-width="0.3"><path d="
M 29.00 42.00 
C 32.54 38.46 36.41 34.59 40.00 31.00
C 36.11 34.33 32.37 38.06 29.00 42.00 Z"/>
</g>
<g fill="None" fill-opacity="0.0" stroke="#FEFEFE" stroke-opacity="0.03" stroke-width="0.3"><path d="
M 168.00 38.00 
C 166.44 36.18 164.87 34.60 163.00 33.00
C 164.55 34.55 166.41 36.41 168.00 38.00 Z"/>
</g>
<g fill="None" fill-opacity="0.0" stroke="#B2B2C8" stroke-opacity="0.30" stroke-width="0.3"><path d="
M 78.00 55.00 
C 88.40 53.30 97.99 50.68 109.00 53.00
C 100.82 50.31 85.29 48.75 78.00 55.00 Z"/>
</g>
<g fill="None" fill-opacity="0.0" stroke="#000000" stroke-opacity="0.00" stroke-width="0.3"><path d="
M 78.00 55.00 
C 78.00 55.00 77.44 54.84 77.00 55.00
C 75.45 56.61 73.85 57.65 72.00 59.00
C 71.01 59.72 70.71 60.09 70.00 61.00
C 67.71 63.94 66.16 67.31 64.00 70.00
C 64.00 70.00 64.09 70.52 64.00 71.00
C 63.61 73.10 62.59 75.30 62.00 77.00
C 62.02 77.50 62.00 78.50 62.00 79.00
C 62.00 84.25 61.51 89.77 62.00 95.00
C 62.20 97.18 62.86 104.20 64.00 106.00
C 64.64 106.76 68.41 107.88 69.00 108.00
C 71.40 108.50 73.14 107.41 75.00 109.00
C 75.00 109.00 75.50 109.03 76.00 109.00
C 79.79 108.75 83.88 110.06 87.00 111.00
C 87.50 110.97 88.50 111.02 89.00 111.00
C 92.60 110.86 95.38 112.25 99.00 112.00
C 98.74 109.56 97.24 107.48 97.00 105.00
C 97.00 105.00 97.08 104.49 97.00 104.00
C 93.37 99.77 91.19 90.71 91.00 85.00
C 90.97 84.00 91.00 83.00 91.00 82.00
C 90.56 79.94 90.74 78.92 91.00 77.00
C 91.06 74.92 90.61 73.44 92.00 72.00
C 92.00 72.00 91.90 71.48 92.00 71.00
C 92.92 66.82 97.56 62.41 102.00 62.00
C 102.00 62.00 102.50 62.00 103.00 62.00
C 104.21 60.83 106.16 60.78 108.00 61.00
C 108.49 61.06 109.00 61.00 109.00 61.00
C 111.07 59.39 112.99 60.04 115.00 61.00
C 115.50 61.00 116.50 61.00 117.00 61.00
C 118.86 61.00 121.18 60.62 123.00 61.00
C 124.66 61.12 126.34 60.91 128.00 61.00
C 127.32 58.51 124.00 59.01 123.00 57.00
C 118.46 55.39 113.60 54.51 109.00 53.00
C 97.99 50.68 88.40 53.30 78.00 55.00 Z"/>
</g>
<g fill="None" fill-opacity="0.0" stroke="#D5D5E0" stroke-opacity="0.16" stroke-width="0.3"><path d="
M 73.00 57.00 
C 72.51 57.50 72.41 58.52 72.00 59.00
C 73.85 57.65 75.45 56.61 77.00 55.00
C 75.67 55.47 74.20 56.23 73.00 57.00 Z"/>
</g>
<g fill="None" fill-opacity="0.0" stroke="#60608B" stroke-opacity="0.63" stroke-width="0.3"><path d="
M 67.00 63.00 
C 67.72 62.19 69.27 61.71 70.00 61.00
C 70.71 60.09 71.01 59.72 72.00 59.00
C 72.41 58.52 72.51 57.50 73.00 57.00
C 70.71 58.48 68.54 60.68 67.00 63.00 Z"/>
</g>
<g fill="None" fill-opacity="0.0" stroke="#C9C8DB" stroke-opacity="0.20" stroke-width="0.3"><path d="
M 123.00 61.00 
C 123.03 61.00 123.00 62.00 123.00 62.00
C 125.00 62.00 127.00 62.00 129.00 62.00
C 129.15 58.61 125.32 57.83 123.00 57.00
C 124.00 59.01 127.32 58.51 128.00 61.00
C 126.34 60.91 124.66 61.12 123.00 61.00 Z"/>
</g>
<g fill="None" fill-opacity="0.0" stroke="#FFFFFF" stroke-opacity="0.02" stroke-width="0.3"><path d="
M 109.00 61.00 
C 111.00 61.00 113.00 61.00 115.00 61.00
C 112.99 60.04 111.07 59.39 109.00 61.00 Z"/>
</g>
<g fill="None" fill-opacity="0.0" stroke="#CFCFDF" stroke-opacity="0.18" stroke-width="0.3"><path d="
M 67.00 63.00 
C 65.63 65.05 64.55 67.66 64.00 70.00
C 66.16 67.31 67.71 63.94 70.00 61.00
C 69.27 61.71 67.72 62.19 67.00 63.00 Z"/>
</g>
<g fill="None" fill-opacity="0.0" stroke="#A8A8BF" stroke-opacity="0.35" stroke-width="0.3"><path d="
M 103.00 62.00 
C 104.67 62.00 106.33 62.00 108.00 62.00
C 108.15 61.95 108.00 61.00 108.00 61.00
C 106.16 60.78 104.21 60.83 103.00 62.00 Z"/>
</g>
<g fill="None" fill-opacity="0.0" stroke="#474678" stroke-opacity="0.79" stroke-width="0.3"><path d="
M 108.00 62.00 
C 111.00 62.00 114.00 62.00 117.00 62.00
C 116.90 61.98 117.00 61.00 117.00 61.00
C 116.50 61.00 115.50 61.00 115.00 61.00
C 113.00 61.00 111.00 61.00 109.00 61.00
C 109.00 61.00 108.49 61.06 108.00 61.00
C 108.00 61.00 108.15 61.95 108.00 62.00 Z"/>
</g>
<g fill="None" fill-opacity="0.0" stroke="#8D8CAB" stroke-opacity="0.47" stroke-width="0.3"><path d="
M 117.00 62.00 
C 118.86 62.00 121.18 62.38 123.00 62.00
C 123.00 62.00 123.03 61.00 123.00 61.00
C 121.18 60.62 118.86 61.00 117.00 61.00
C 117.00 61.00 116.90 61.98 117.00 62.00 Z"/>
</g>
<g fill="None" fill-opacity="0.0" stroke="#AEADC6" stroke-opacity="0.31" stroke-width="0.3"><path d="
M 92.00 71.00 
C 94.42 67.21 98.64 64.69 102.00 62.00
C 97.56 62.41 92.92 66.82 92.00 71.00 Z"/>
</g>
<g fill="None" fill-opacity="0.0" stroke="#8887A7" stroke-opacity="0.53" stroke-width="0.3"><path d="
M 107.00 71.00 
C 108.59 70.78 110.39 71.00 112.00 71.00
C 110.01 69.25 108.91 70.46 107.00 71.00 Z"/>
</g>
<g fill="None" fill-opacity="0.0" stroke="#ADADC4" stroke-opacity="0.23" stroke-width="0.3"><path d="
M 189.00 74.00 
C 188.48 72.44 187.57 71.28 187.00 70.00
C 187.52 71.63 188.38 72.67 189.00 74.00 Z"/>
</g>
<g fill="None" fill-opacity="0.0" stroke="#B8B9CA" stroke-opacity="0.27" stroke-width="0.3"><path d="
M 62.00 77.00 
C 62.59 75.30 63.61 73.10 64.00 71.00
C 62.14 72.42 61.91 74.64 62.00 77.00 Z"/>
</g>
<g fill="None" fill-opacity="0.0" stroke="#000000" stroke-opacity="0.00" stroke-width="0.3"><path d="
M 101.00 73.00 
C 97.47 75.42 96.26 80.99 97.00 85.00
C 97.62 86.80 98.74 88.08 99.00 90.00
C 102.62 91.51 108.14 96.70 111.00 99.00
C 111.00 99.00 111.50 99.00 112.00 99.00
C 114.67 99.00 117.33 99.00 120.00 99.00
C 120.00 99.00 120.50 99.01 121.00 99.00
C 126.79 95.97 129.72 93.59 129.00 86.00
C 129.00 86.00 129.07 85.49 129.00 85.00
C 127.58 83.23 126.44 80.93 125.00 79.00
C 124.02 77.68 123.27 76.95 122.00 76.00
C 119.18 73.90 115.81 72.47 113.00 71.00
C 113.00 71.00 112.50 71.00 112.00 71.00
C 110.39 71.00 108.59 70.78 107.00 71.00
C 105.25 71.49 102.54 72.18 101.00 73.00 Z"/>
</g>
<g fill="None" fill-opacity="0.0" stroke="#C4C5D7" stroke-opacity="0.22" stroke-width="0.3"><path d="
M 122.00 76.00 
C 121.62 75.55 121.36 74.33 121.00 74.00
C 118.72 72.48 115.75 71.06 113.00 71.00
C 115.81 72.47 119.18 73.90 122.00 76.00 Z"/>
</g>
<g fill="None" fill-opacity="0.0" stroke="#5F5F8B" stroke-opacity="0.69" stroke-width="0.3"><path d="
M 91.00 77.00 
C 90.95 78.66 91.00 80.34 91.00 82.00
C 91.00 83.00 90.97 84.00 91.00 85.00
C 91.27 85.25 92.00 85.00 92.00 85.00
C 91.71 80.71 92.00 76.30 92.00 72.00
C 90.61 73.44 91.06 74.92 91.00 77.00 Z"/>
</g>
<g fill="None" fill-opacity="0.0" stroke="#BFBFD1" stroke-opacity="0.25" stroke-width="0.3"><path d="
M 97.00 85.00 
C 96.26 80.99 97.47 75.42 101.00 73.00
C 96.03 75.65 95.46 80.51 97.00 85.00 Z"/>
</g>
<g fill="None" fill-opacity="0.0" stroke="#5B5B86" stroke-opacity="0.66" stroke-width="0.3"><path d="
M 122.00 76.00 
C 123.27 76.95 124.02 77.68 125.00 79.00
C 125.48 79.42 126.61 79.61 127.00 80.00
C 125.55 77.70 123.30 75.53 121.00 74.00
C 121.36 74.33 121.62 75.55 122.00 76.00 Z"/>
</g>
<g fill="None" fill-opacity="0.0" stroke="#000000" stroke-opacity="0.00" stroke-width="0.3"><path d="
M 134.00 79.00 
C 134.53 80.94 135.90 82.49 136.00 85.00
C 136.02 85.50 136.00 86.50 136.00 87.00
C 137.22 89.58 136.41 90.65 136.00 93.00
C 135.87 95.06 135.73 96.16 135.00 98.00
C 133.73 101.19 130.16 105.45 127.00 107.00
C 127.00 107.00 126.43 106.83 126.00 107.00
C 124.40 109.56 121.63 110.03 119.00 111.00
C 115.26 112.38 112.06 113.74 108.00 114.00
C 106.09 114.34 103.48 114.82 101.00 115.00
C 96.67 115.31 93.56 115.29 89.00 115.00
C 86.81 114.86 84.57 114.28 83.00 114.00
C 80.39 113.89 78.40 113.40 76.00 113.00
C 72.60 112.42 68.85 112.35 66.00 111.00
C 66.00 111.00 65.02 110.90 65.00 111.00
C 64.80 111.89 65.69 114.13 66.00 115.00
C 68.53 122.11 71.72 128.87 74.00 136.00
C 74.90 138.02 76.42 139.55 77.00 142.00
C 77.00 142.00 76.89 142.53 77.00 143.00
C 78.45 144.81 79.44 146.60 80.00 149.00
C 80.00 149.00 79.89 149.53 80.00 150.00
C 81.61 152.01 82.85 154.53 84.00 157.00
C 87.81 156.94 91.06 154.69 95.00 155.00
C 99.33 153.34 103.61 152.28 108.00 151.00
C 112.73 149.05 118.34 145.64 123.00 143.00
C 124.29 142.27 125.82 141.65 127.00 141.00
C 134.98 135.46 144.67 124.81 148.00 116.00
C 148.41 114.45 148.81 112.54 149.00 111.00
C 149.51 106.81 149.00 102.23 149.00 98.00
C 149.00 98.00 148.99 97.50 149.00 97.00
C 147.93 95.51 147.69 93.83 147.00 92.00
C 146.40 90.41 145.68 88.46 145.00 87.00
C 142.27 82.41 137.29 78.49 134.00 74.00
C 132.51 74.64 133.77 77.61 134.00 79.00 Z"/>
</g>
<g fill="None" fill-opacity="0.0" stroke="#C3C3D2" stroke-opacity="0.22" stroke-width="0.3"><path d="
M 145.00 87.00 
C 144.19 85.28 141.70 80.68 140.25 79.75 C 138.80 78.82 135.39 73.40 134.00 74.00
C 137.29 78.49 142.27 82.41 145.00 87.00 Z"/>
</g>
<g fill="None" fill-opacity="0.0" stroke="#F7F7FB" stroke-opacity="0.04" stroke-width="0.3"><path d="
M 91.00 82.00 
C 91.00 80.34 90.95 78.66 91.00 77.00
C 90.74 78.92 90.56 79.94 91.00 82.00 Z"/>
</g>
<g fill="None" fill-opacity="0.0" stroke="#B2B1C7" stroke-opacity="0.31" stroke-width="0.3"><path d="
M 62.00 95.00 
C 61.51 89.77 62.00 84.25 62.00 79.00
C 60.06 83.57 61.02 90.36 62.00 95.00 Z"/>
</g>
<g fill="None" fill-opacity="0.0" stroke="#BDBDCD" stroke-opacity="0.25" stroke-width="0.3"><path d="
M 129.00 85.00 
C 128.80 83.52 128.12 81.09 127.00 80.00
C 126.61 79.61 125.48 79.42 125.00 79.00
C 126.44 80.93 127.58 83.23 129.00 85.00 Z"/>
</g>
<g fill="None" fill-opacity="0.0" stroke="#B1B1C7" stroke-opacity="0.31" stroke-width="0.3"><path d="
M 136.00 85.00 
C 135.90 82.49 134.53 80.94 134.00 79.00
C 134.46 81.85 134.49 82.77 136.00 85.00 Z"/>
</g>
<g fill="None" fill-opacity="0.0" stroke="#B8B8CD" stroke-opacity="0.27" stroke-width="0.3"><path d="
M 97.00 104.00 
C 95.93 97.43 92.46 91.80 92.00 85.00
C 92.00 85.00 91.27 85.25 91.00 85.00
C 91.19 90.71 93.37 99.77 97.00 104.00 Z"/>
</g>
<g fill="None" fill-opacity="0.0" stroke="#A0A0B9" stroke-opacity="0.30" stroke-width="0.3"><path d="
M 8.00 91.00 
C 8.58 89.38 8.81 88.15 9.00 86.00
C 8.73 87.40 7.89 88.91 8.00 91.00 Z"/>
</g>
<g fill="None" fill-opacity="0.0" stroke="#B5B5C9" stroke-opacity="0.29" stroke-width="0.3"><path d="
M 121.00 99.00 
C 126.93 98.88 132.97 91.37 129.00 86.00
C 129.72 93.59 126.79 95.97 121.00 99.00 Z"/>
</g>
<g fill="None" fill-opacity="0.0" stroke="#F7F7FA" stroke-opacity="0.05" stroke-width="0.3"><path d="
M 136.00 93.00 
C 136.41 90.65 137.22 89.58 136.00 87.00
C 136.00 88.99 136.13 91.02 136.00 93.00 Z"/>
</g>
<g fill="None" fill-opacity="0.0" stroke="#D5D5E3" stroke-opacity="0.16" stroke-width="0.3"><path d="
M 99.00 91.00 
C 100.96 92.37 102.30 94.67 104.00 96.00
C 106.05 97.37 108.66 98.45 111.00 99.00
C 108.14 96.70 102.62 91.51 99.00 90.00
C 99.00 90.00 98.80 90.60 99.00 91.00 Z"/>
</g>
<g fill="None" fill-opacity="0.0" stroke="#B6B6C8" stroke-opacity="0.21" stroke-width="0.3"><path d="
M 192.00 96.00 
C 192.02 96.10 193.00 96.00 193.00 96.00
C 192.94 93.81 192.25 91.58 192.00 90.00
C 192.06 92.00 192.00 94.00 192.00 96.00 Z"/>
</g>
<g fill="None" fill-opacity="0.0" stroke="#494879" stroke-opacity="0.74" stroke-width="0.3"><path d="
M 104.00 96.00 
C 102.30 94.67 100.96 92.37 99.00 91.00
C 99.99 93.02 102.13 94.76 104.00 96.00 Z"/>
</g>
<g fill="None" fill-opacity="0.0" stroke="#CBCBD8" stroke-opacity="0.21" stroke-width="0.3"><path d="
M 149.00 97.00 
C 149.07 94.45 147.94 93.83 147.00 92.00
C 147.69 93.83 147.93 95.51 149.00 97.00 Z"/>
</g>
<g fill="None" fill-opacity="0.0" stroke="#C7C6D8" stroke-opacity="0.12" stroke-width="0.3"><path d="
M 8.00 110.00 
C 8.00 104.33 8.00 98.67 8.00 93.00
C 6.23 97.16 6.20 105.78 8.00 110.00 Z"/>
</g>
<g fill="None" fill-opacity="0.0" stroke="#595885" stroke-opacity="0.52" stroke-width="0.3"><path d="
M 192.00 108.00 
C 192.02 107.90 193.00 108.00 193.00 108.00
C 193.11 104.02 193.11 99.98 193.00 96.00
C 193.00 96.00 192.02 96.10 192.00 96.00
C 192.00 100.00 192.00 104.00 192.00 108.00 Z"/>
</g>
<g fill="None" fill-opacity="0.0" stroke="#AFB0C7" stroke-opacity="0.29" stroke-width="0.3"><path d="
M 127.00 107.00 
C 130.16 105.45 133.73 101.19 135.00 98.00
C 133.42 101.10 129.18 103.88 127.00 107.00 Z"/>
</g>
<g fill="None" fill-opacity="0.0" stroke="#DEDDE6" stroke-opacity="0.14" stroke-width="0.3"><path d="
M 149.00 111.00 
C 149.79 107.76 151.38 101.21 149.00 98.00
C 149.00 102.23 149.51 106.81 149.00 111.00 Z"/>
</g>
<g fill="None" fill-opacity="0.0" stroke="#C5C4D4" stroke-opacity="0.23" stroke-width="0.3"><path d="
M 120.00 99.00 
C 117.33 99.00 114.67 99.00 112.00 99.00
C 114.03 100.50 117.93 100.53 120.00 99.00 Z"/>
</g>
<g fill="None" fill-opacity="0.0" stroke="#B3B3C8" stroke-opacity="0.30" stroke-width="0.3"><path d="
M 89.00 111.00 
C 91.94 112.69 96.25 113.04 100.00 113.00
C 99.94 110.02 98.81 107.11 97.00 105.00
C 97.24 107.48 98.74 109.56 99.00 112.00
C 95.38 112.25 92.60 110.86 89.00 111.00 Z"/>
</g>
<g fill="None" fill-opacity="0.0" stroke="#D9D9E6" stroke-opacity="0.16" stroke-width="0.3"><path d="
M 69.00 108.00 
C 68.41 107.88 64.64 106.76 64.00 106.00
C 65.53 108.42 66.49 107.41 69.00 108.00 Z"/>
</g>
<g fill="None" fill-opacity="0.0" stroke="#CDCDDB" stroke-opacity="0.19" stroke-width="0.3"><path d="
M 119.00 111.00 
C 121.63 110.03 124.40 109.56 126.00 107.00
C 123.46 108.00 121.22 109.88 119.00 111.00 Z"/>
</g>
<g fill="None" fill-opacity="0.0" stroke="#A9A9C3" stroke-opacity="0.34" stroke-width="0.3"><path d="
M 75.00 109.00 
C 73.14 107.41 71.40 108.50 69.00 108.00
C 70.74 108.41 72.56 109.26 75.00 109.00 Z"/>
</g>
<g fill="None" fill-opacity="0.0" stroke="#C9C8D9" stroke-opacity="0.17" stroke-width="0.3"><path d="
M 192.00 114.00 
C 192.24 112.45 192.94 110.22 193.00 108.00
C 193.00 108.00 192.02 107.90 192.00 108.00
C 192.00 110.00 192.06 112.00 192.00 114.00 Z"/>
</g>
<g fill="None" fill-opacity="0.0" stroke="#AEAEC6" stroke-opacity="0.33" stroke-width="0.3"><path d="
M 87.00 111.00 
C 83.88 110.06 79.79 108.75 76.00 109.00
C 79.11 110.36 83.11 111.27 87.00 111.00 Z"/>
</g>
<g fill="None" fill-opacity="0.0" stroke="#A8A7C0" stroke-opacity="0.35" stroke-width="0.3"><path d="
M 66.00 115.00 
C 65.69 114.13 64.80 111.89 65.00 111.00
C 62.96 112.51 65.34 113.60 66.00 115.00 Z"/>
</g>
<g fill="None" fill-opacity="0.0" stroke="#CACADB" stroke-opacity="0.21" stroke-width="0.3"><path d="
M 76.00 113.00 
C 72.86 112.11 69.95 110.57 66.00 111.00
C 68.85 112.35 72.60 112.42 76.00 113.00 Z"/>
</g>
<g fill="None" fill-opacity="0.0" stroke="#A8A8C0" stroke-opacity="0.26" stroke-width="0.3"><path d="
M 9.00 117.00 
C 8.82 114.92 8.57 113.59 8.00 112.00
C 7.90 114.04 8.73 115.60 9.00 117.00 Z"/>
</g>
<g fill="None" fill-opacity="0.0" stroke="#C4C4D6" stroke-opacity="0.23" stroke-width="0.3"><path d="
M 89.00 115.00 
C 89.02 115.00 89.00 114.00 89.00 114.00
C 87.01 114.00 84.99 114.09 83.00 114.00
C 84.57 114.28 86.81 114.86 89.00 115.00 Z"/>
</g>
<g fill="None" fill-opacity="0.0" stroke="#696992" stroke-opacity="0.65" stroke-width="0.3"><path d="
M 89.00 115.00 
C 93.56 115.29 96.67 115.31 101.00 115.00
C 101.10 114.98 101.00 114.00 101.00 114.00
C 97.00 114.00 93.00 114.00 89.00 114.00
C 89.00 114.00 89.02 115.00 89.00 115.00 Z"/>
</g>
<g fill="None" fill-opacity="0.0" stroke="#BBBBCE" stroke-opacity="0.28" stroke-width="0.3"><path d="
M 101.00 115.00 
C 103.48 114.82 106.09 114.34 108.00 114.00
C 105.69 114.15 103.32 114.00 101.00 114.00
C 101.00 114.00 101.10 114.98 101.00 115.00 Z"/>
</g>
<g fill="None" fill-opacity="0.0" stroke="#CECEDC" stroke-opacity="0.18" stroke-width="0.3"><path d="
M 127.00 141.00 
C 129.06 139.86 131.08 138.42 133.00 137.00
C 135.19 135.09 138.06 132.10 140.00 130.00
C 143.35 125.76 146.61 121.22 148.00 116.00
C 144.67 124.81 134.98 135.46 127.00 141.00 Z"/>
</g>
<g fill="None" fill-opacity="0.0" stroke="#504F7F" stroke-opacity="0.70" stroke-width="0.3"><path d="
M 133.00 137.00 
C 135.64 135.04 137.93 132.62 140.00 130.00
C 138.06 132.10 135.19 135.09 133.00 137.00 Z"/>
</g>
<g fill="None" fill-opacity="0.0" stroke="#A9A8BF" stroke-opacity="0.21" stroke-width="0.3"><path d="
M 16.00 140.00 
C 15.43 138.41 14.68 137.33 14.00 136.00
C 14.57 137.54 15.35 138.70 16.00 140.00 Z"/>
</g>
<g fill="None" fill-opacity="0.0" stroke="#B5B6CA" stroke-opacity="0.28" stroke-width="0.3"><path d="
M 77.00 142.00 
C 76.42 139.55 74.90 138.02 74.00 136.00
C 74.76 138.36 75.50 140.13 77.00 142.00 Z"/>
</g>
<g fill="None" fill-opacity="0.0" stroke="#BEBED0" stroke-opacity="0.25" stroke-width="0.3"><path d="
M 80.00 149.00 
C 79.44 146.60 78.45 144.81 77.00 143.00
C 77.56 145.40 78.55 147.19 80.00 149.00 Z"/>
</g>
<g fill="None" fill-opacity="0.0" stroke="#C5C5D5" stroke-opacity="0.22" stroke-width="0.3"><path d="
M 108.00 151.00 
C 113.53 149.39 118.51 146.20 123.00 143.00
C 118.34 145.64 112.73 149.05 108.00 151.00 Z"/>
</g>
<g fill="None" fill-opacity="0.0" stroke="#ADADC4" stroke-opacity="0.32" stroke-width="0.3"><path d="
M 95.00 155.00 
C 91.06 154.69 87.81 156.94 84.00 157.00
C 82.85 154.53 81.61 152.01 80.00 150.00
C 80.12 152.98 82.87 155.05 83.00 158.00
C 87.24 158.02 91.47 156.35 95.00 155.00 Z"/>
</g>
<g fill="None" fill-opacity="0.0" stroke="#A5A5BF" stroke-opacity="0.20" stroke-width="0.3"><path d="
M 42.00 174.00 
C 37.19 169.19 31.65 164.03 27.00 159.00
C 31.26 164.39 36.74 169.51 42.00 174.00 Z"/>
</g>
<g fill="None" fill-opacity="0.0" stroke="#FBFBFE" stroke-opacity="0.03" stroke-width="0.3"><path d="
M 163.00 170.00 
C 165.51 167.85 167.81 165.56 170.00 163.00
C 167.79 165.21 165.26 167.74 163.00 170.00 Z"/>
</g>
<g fill="None" fill-opacity="0.0" stroke="#B5B4C7" stroke-opacity="0.20" stroke-width="0.3"><path d="
M 126.00 191.00 
C 127.81 190.50 129.52 189.56 131.00 189.00
C 128.99 189.54 127.65 190.35 126.00 191.00 Z"/>
</g>
<g fill="None" fill-opacity="0.0" stroke="#2A2962" stroke-opacity="0.82" stroke-width="0.3"><path d="
M 94.00 194.00 
C 94.50 194.00 95.50 194.00 96.00 194.00
C 98.67 194.00 101.33 194.00 104.00 194.00
C 104.50 194.00 105.50 194.00 106.00 194.00
C 106.23 193.66 106.00 193.00 106.00 193.00
C 101.92 193.00 97.40 193.67 94.00 194.00 Z"/>
</g>
<g fill="None" fill-opacity="0.0" stroke="#8D8DAD" stroke-opacity="0.36" stroke-width="0.3"><path d="
M 106.00 194.00 
C 109.21 194.00 112.43 193.42 115.00 193.00
C 112.02 193.16 108.99 193.00 106.00 193.00
C 106.00 193.00 106.23 193.66 106.00 194.00 Z"/>
</g>
<g fill="None" fill-opacity="0.0" stroke="#FCFCFC" stroke-opacity="0.04" stroke-width="0.3"><path d="
M 104.00 194.00 
C 101.33 194.00 98.67 194.00 96.00 194.00
C 98.76 195.17 101.19 195.20 104.00 194.00 Z"/>
</g>
<g fill="#000000" fill-opacity="0.00" stroke="None">
<path d="
M 0.00 203.00 
L 200.00 203.00
L 200.00 0.00
L 0.00 0.00
L 0.00 203.00
M 112.00 10.00 
C 112.50 10.00 113.50 10.03 114.00 10.00
C 116.12 9.89 117.56 10.69 119.00 11.00
C 127.46 11.87 135.46 15.14 143.00 19.00
C 145.27 20.16 147.09 21.80 149.00 23.00
C 154.11 25.50 158.53 29.18 163.00 33.00
C 164.87 34.60 166.44 36.18 168.00 38.00
C 176.66 48.13 183.06 57.54 187.00 70.00
C 187.57 71.28 188.48 72.44 189.00 74.00
C 190.73 79.19 191.84 84.34 192.00 90.00
C 192.25 91.58 192.94 93.81 193.00 96.00
C 193.11 99.98 193.11 104.02 193.00 108.00
C 192.94 110.22 192.24 112.45 192.00 114.00
C 191.50 131.99 181.51 149.53 170.00 163.00
C 167.81 165.56 165.51 167.85 163.00 170.00
C 153.26 178.32 143.19 185.70 131.00 189.00
C 129.52 189.56 127.81 190.50 126.00 191.00
C 122.32 192.01 118.96 192.79 115.00 193.00
C 112.43 193.42 109.21 194.00 106.00 194.00
C 105.50 194.00 104.50 194.00 104.00 194.00
C 101.19 195.20 98.76 195.17 96.00 194.00
C 95.50 194.00 94.50 194.00 94.00 194.00
C 75.36 194.00 56.08 186.03 42.00 174.00
C 36.74 169.51 31.26 164.39 27.00 159.00
C 22.40 153.18 18.47 146.87 16.00 140.00
C 15.35 138.70 14.57 137.54 14.00 136.00
C 11.64 129.67 9.60 123.86 9.00 117.00
C 8.73 115.60 7.90 114.04 8.00 112.00
C 8.03 111.50 8.00 110.50 8.00 110.00
C 6.20 105.78 6.23 97.16 8.00 93.00
C 8.00 92.50 8.03 91.50 8.00 91.00
C 7.89 88.91 8.73 87.40 9.00 86.00
C 10.38 70.04 18.59 54.18 29.00 42.00
C 32.37 38.06 36.11 34.33 40.00 31.00
C 42.27 29.06 44.39 27.32 47.00 26.00
C 48.06 25.20 48.92 24.70 50.00 24.00
C 51.41 23.09 52.05 21.53 54.00 21.00
C 54.47 20.87 55.00 21.00 55.00 21.00
C 56.62 18.41 59.38 18.03 62.00 17.00
C 70.80 13.55 79.20 10.07 89.00 10.00
C 90.25 9.80 92.15 9.07 94.00 9.00
C 97.97 8.84 102.03 8.89 106.00 9.00
C 108.51 9.07 110.07 9.23 112.00 10.00 Z"/>
</g>
<g fill="#C9C9D7" fill-opacity="0.15" stroke="None">
<path d="
M 89.00 10.00 
C 90.67 9.99 92.33 10.00 94.00 10.00
C 94.15 9.95 94.00 9.00 94.00 9.00
C 92.15 9.07 90.25 9.80 89.00 10.00 Z"/>
</g>
<g fill="#64638B" fill-opacity="0.45" stroke="None">
<path d="
M 94.00 10.00 
C 98.00 10.00 102.00 10.00 106.00 10.00
C 105.90 9.98 106.00 9.00 106.00 9.00
C 102.03 8.89 97.97 8.84 94.00 9.00
C 94.00 9.00 94.15 9.95 94.00 10.00 Z"/>
</g>
<g fill="#C3C3D7" fill-opacity="0.16" stroke="None">
<path d="
M 106.00 10.00 
C 108.00 10.00 110.00 10.00 112.00 10.00
C 110.07 9.23 108.51 9.07 106.00 9.00
C 106.00 9.00 105.90 9.98 106.00 10.00 Z"/>
</g>
<g fill="#2D2C65" fill-opacity="0.98" stroke="None">
<path d="
M 62.00 17.00 
C 59.79 18.18 57.55 20.00 55.00 21.00
C 55.00 21.00 54.47 20.87 54.00 21.00
C 52.77 22.69 51.58 22.81 50.00 24.00
C 48.75 24.94 48.45 25.27 47.00 26.00
C 44.39 27.32 42.27 29.06 40.00 31.00
C 36.41 34.59 32.54 38.46 29.00 42.00
C 18.59 54.18 10.38 70.04 9.00 86.00
C 8.81 88.15 8.58 89.38 8.00 91.00
C 8.03 91.50 8.00 92.50 8.00 93.00
C 8.00 98.67 8.00 104.33 8.00 110.00
C 8.00 110.50 8.03 111.50 8.00 112.00
C 8.57 113.59 8.82 114.92 9.00 117.00
C 9.60 123.86 11.64 129.67 14.00 136.00
C 14.68 137.33 15.43 138.41 16.00 140.00
C 18.47 146.87 22.40 153.18 27.00 159.00
C 31.65 164.03 37.19 169.19 42.00 174.00
C 56.08 186.03 75.36 194.00 94.00 194.00
C 97.40 193.67 101.92 193.00 106.00 193.00
C 108.99 193.00 112.02 193.16 115.00 193.00
C 118.96 192.79 122.32 192.01 126.00 191.00
C 127.65 190.35 128.99 189.54 131.00 189.00
C 143.19 185.70 153.26 178.32 163.00 170.00
C 165.26 167.74 167.79 165.21 170.00 163.00
C 181.51 149.53 191.50 131.99 192.00 114.00
C 192.06 112.00 192.00 110.00 192.00 108.00
C 192.00 104.00 192.00 100.00 192.00 96.00
C 192.00 94.00 192.06 92.00 192.00 90.00
C 191.84 84.34 190.73 79.19 189.00 74.00
C 188.38 72.67 187.52 71.63 187.00 70.00
C 183.06 57.54 176.66 48.13 168.00 38.00
C 166.41 36.41 164.55 34.55 163.00 33.00
C 158.53 29.18 154.11 25.50 149.00 23.00
C 146.70 21.87 145.01 20.39 143.00 19.00
C 135.46 15.14 127.46 11.87 119.00 11.00
C 116.88 10.78 115.61 10.58 114.00 10.00
C 113.50 10.03 112.50 10.00 112.00 10.00
C 110.00 10.00 108.00 10.00 106.00 10.00
C 102.00 10.00 98.00 10.00 94.00 10.00
C 92.33 10.00 90.67 9.99 89.00 10.00
C 79.20 10.07 70.80 13.55 62.00 17.00
M 109.00 53.00 
C 113.60 54.51 118.46 55.39 123.00 57.00
C 125.32 57.83 129.15 58.61 129.00 62.00
C 127.00 62.00 125.00 62.00 123.00 62.00
C 121.18 62.38 118.86 62.00 117.00 62.00
C 114.00 62.00 111.00 62.00 108.00 62.00
C 106.33 62.00 104.67 62.00 103.00 62.00
C 102.50 62.00 102.00 62.00 102.00 62.00
C 98.64 64.69 94.42 67.21 92.00 71.00
C 91.90 71.48 92.00 72.00 92.00 72.00
C 92.00 76.30 91.71 80.71 92.00 85.00
C 92.46 91.80 95.93 97.43 97.00 104.00
C 97.08 104.49 97.00 105.00 97.00 105.00
C 98.81 107.11 99.94 110.02 100.00 113.00
C 96.25 113.04 91.94 112.69 89.00 111.00
C 88.50 111.02 87.50 110.97 87.00 111.00
C 83.11 111.27 79.11 110.36 76.00 109.00
C 75.50 109.03 75.00 109.00 75.00 109.00
C 72.56 109.26 70.74 108.41 69.00 108.00
C 66.49 107.41 65.53 108.42 64.00 106.00
C 62.86 104.20 62.20 97.18 62.00 95.00
C 61.02 90.36 60.06 83.57 62.00 79.00
C 62.00 78.50 62.02 77.50 62.00 77.00
C 61.91 74.64 62.14 72.42 64.00 71.00
C 64.09 70.52 64.00 70.00 64.00 70.00
C 64.55 67.66 65.63 65.05 67.00 63.00
C 68.54 60.68 70.71 58.48 73.00 57.00
C 74.20 56.23 75.67 55.47 77.00 55.00
C 77.44 54.84 78.00 55.00 78.00 55.00
C 85.29 48.75 100.82 50.31 109.00 53.00
M 112.00 71.00 
C 112.50 71.00 113.00 71.00 113.00 71.00
C 115.75 71.06 118.72 72.48 121.00 74.00
C 123.30 75.53 125.55 77.70 127.00 80.00
C 128.12 81.09 128.80 83.52 129.00 85.00
C 129.07 85.49 129.00 86.00 129.00 86.00
C 132.97 91.37 126.93 98.88 121.00 99.00
C 120.50 99.01 120.00 99.00 120.00 99.00
C 117.93 100.53 114.03 100.50 112.00 99.00
C 111.50 99.00 111.00 99.00 111.00 99.00
C 108.66 98.45 106.05 97.37 104.00 96.00
C 102.13 94.76 99.99 93.02 99.00 91.00
C 98.80 90.60 99.00 90.00 99.00 90.00
C 98.74 88.08 97.62 86.80 97.00 85.00
C 95.46 80.51 96.03 75.65 101.00 73.00
C 102.54 72.18 105.25 71.49 107.00 71.00
C 108.91 70.46 110.01 69.25 112.00 71.00
M 145.00 87.00 
C 145.68 88.46 146.40 90.41 147.00 92.00
C 147.94 93.83 149.07 94.45 149.00 97.00
C 148.99 97.50 149.00 98.00 149.00 98.00
C 151.38 101.21 149.79 107.76 149.00 111.00
C 148.81 112.54 148.41 114.45 148.00 116.00
C 146.61 121.22 143.35 125.76 140.00 130.00
C 137.93 132.62 135.64 135.04 133.00 137.00
C 131.08 138.42 129.06 139.86 127.00 141.00
C 125.82 141.65 124.29 142.27 123.00 143.00
C 118.51 146.20 113.53 149.39 108.00 151.00
C 103.61 152.28 99.33 153.34 95.00 155.00
C 91.47 156.35 87.24 158.02 83.00 158.00
C 82.87 155.05 80.12 152.98 80.00 150.00
C 79.89 149.53 80.00 149.00 80.00 149.00
C 78.55 147.19 77.56 145.40 77.00 143.00
C 76.89 142.53 77.00 142.00 77.00 142.00
C 75.50 140.13 74.76 138.36 74.00 136.00
C 71.72 128.87 68.53 122.11 66.00 115.00
C 65.34 113.60 62.96 112.51 65.00 111.00
C 65.02 110.90 66.00 111.00 66.00 111.00
C 69.95 110.57 72.86 112.11 76.00 113.00
C 78.40 113.40 80.39 113.89 83.00 114.00
C 84.99 114.09 87.01 114.00 89.00 114.00
C 93.00 114.00 97.00 114.00 101.00 114.00
C 103.32 114.00 105.69 114.15 108.00 114.00
C 112.06 113.74 115.26 112.38 119.00 111.00
C 121.22 109.88 123.46 108.00 126.00 107.00
C 126.43 106.83 127.00 107.00 127.00 107.00
C 129.18 103.88 133.42 101.10 135.00 98.00
C 135.73 96.16 135.87 95.06 136.00 93.00
C 136.13 91.02 136.00 88.99 136.00 87.00
C 136.00 86.50 136.02 85.50 136.00 85.00
C 134.49 82.77 134.46 81.85 134.00 79.00
C 133.77 77.61 132.51 74.64 134.00 74.00
C 135.39 73.40 138.80 78.82 140.25 79.75 C 141.70 80.68 144.19 85.28 145.00 87.00 Z"/>
</g>
<g fill="#BCBBCE" fill-opacity="0.20" stroke="None">
<path d="
M 119.00 11.00 
C 117.56 10.69 116.12 9.89 114.00 10.00
C 115.61 10.58 116.88 10.78 119.00 11.00 Z"/>
</g>
<g fill="#BFBFD2" fill-opacity="0.15" stroke="None">
<path d="
M 55.00 21.00 
C 57.55 20.00 59.79 18.18 62.00 17.00
C 59.38 18.03 56.62 18.41 55.00 21.00 Z"/>
</g>
<g fill="#999AB7" fill-opacity="0.26" stroke="None">
<path d="
M 149.00 23.00 
C 147.09 21.80 145.27 20.16 143.00 19.00
C 145.01 20.39 146.70 21.87 149.00 23.00 Z"/>
</g>
<g fill="#B1B2C5" fill-opacity="0.18" stroke="None">
<path d="
M 50.00 24.00 
C 51.58 22.81 52.77 22.69 54.00 21.00
C 52.05 21.53 51.41 23.09 50.00 24.00 Z"/>
</g>
<g fill="#8A8CAD" fill-opacity="0.35" stroke="None">
<path d="
M 47.00 26.00 
C 48.45 25.27 48.75 24.94 50.00 24.00
C 48.92 24.70 48.06 25.20 47.00 26.00 Z"/>
</g>
<g fill="#ADADC2" fill-opacity="0.14" stroke="None">
<path d="
M 29.00 42.00 
C 32.54 38.46 36.41 34.59 40.00 31.00
C 36.11 34.33 32.37 38.06 29.00 42.00 Z"/>
</g>
<g fill="#FEFEFE" fill-opacity="0.03" stroke="None">
<path d="
M 168.00 38.00 
C 166.44 36.18 164.87 34.60 163.00 33.00
C 164.55 34.55 166.41 36.41 168.00 38.00 Z"/>
</g>
<g fill="#B2B2C8" fill-opacity="0.30" stroke="None">
<path d="
M 78.00 55.00 
C 88.40 53.30 97.99 50.68 109.00 53.00
C 100.82 50.31 85.29 48.75 78.00 55.00 Z"/>
</g>
<g fill="#000000" fill-opacity="0.00" stroke="None">
<path d="
M 78.00 55.00 
C 78.00 55.00 77.44 54.84 77.00 55.00
C 75.45 56.61 73.85 57.65 72.00 59.00
C 71.01 59.72 70.71 60.09 70.00 61.00
C 67.71 63.94 66.16 67.31 64.00 70.00
C 64.00 70.00 64.09 70.52 64.00 71.00
C 63.61 73.10 62.59 75.30 62.00 77.00
C 62.02 77.50 62.00 78.50 62.00 79.00
C 62.00 84.25 61.51 89.77 62.00 95.00
C 62.20 97.18 62.86 104.20 64.00 106.00
C 64.64 106.76 68.41 107.88 69.00 108.00
C 71.40 108.50 73.14 107.41 75.00 109.00
C 75.00 109.00 75.50 109.03 76.00 109.00
C 79.79 108.75 83.88 110.06 87.00 111.00
C 87.50 110.97 88.50 111.02 89.00 111.00
C 92.60 110.86 95.38 112.25 99.00 112.00
C 98.74 109.56 97.24 107.48 97.00 105.00
C 97.00 105.00 97.08 104.49 97.00 104.00
C 93.37 99.77 91.19 90.71 91.00 85.00
C 90.97 84.00 91.00 83.00 91.00 82.00
C 90.56 79.94 90.74 78.92 91.00 77.00
C 91.06 74.92 90.61 73.44 92.00 72.00
C 92.00 72.00 91.90 71.48 92.00 71.00
C 92.92 66.82 97.56 62.41 102.00 62.00
C 102.00 62.00 102.50 62.00 103.00 62.00
C 104.21 60.83 106.16 60.78 108.00 61.00
C 108.49 61.06 109.00 61.00 109.00 61.00
C 111.07 59.39 112.99 60.04 115.00 61.00
C 115.50 61.00 116.50 61.00 117.00 61.00
C 118.86 61.00 121.18 60.62 123.00 61.00
C 124.66 61.12 126.34 60.91 128.00 61.00
C 127.32 58.51 124.00 59.01 123.00 57.00
C 118.46 55.39 113.60 54.51 109.00 53.00
C 97.99 50.68 88.40 53.30 78.00 55.00 Z"/>
</g>
<g fill="#D5D5E0" fill-opacity="0.16" stroke="None">
<path d="
M 73.00 57.00 
C 72.51 57.50 72.41 58.52 72.00 59.00
C 73.85 57.65 75.45 56.61 77.00 55.00
C 75.67 55.47 74.20 56.23 73.00 57.00 Z"/>
</g>
<g fill="#60608B" fill-opacity="0.63" stroke="None">
<path d="
M 67.00 63.00 
C 67.72 62.19 69.27 61.71 70.00 61.00
C 70.71 60.09 71.01 59.72 72.00 59.00
C 72.41 58.52 72.51 57.50 73.00 57.00
C 70.71 58.48 68.54 60.68 67.00 63.00 Z"/>
</g>
<g fill="#C9C8DB" fill-opacity="0.20" stroke="None">
<path d="
M 123.00 61.00 
C 123.03 61.00 123.00 62.00 123.00 62.00
C 125.00 62.00 127.00 62.00 129.00 62.00
C 129.15 58.61 125.32 57.83 123.00 57.00
C 124.00 59.01 127.32 58.51 128.00 61.00
C 126.34 60.91 124.66 61.12 123.00 61.00 Z"/>
</g>
<g fill="#FFFFFF" fill-opacity="0.02" stroke="None">
<path d="
M 109.00 61.00 
C 111.00 61.00 113.00 61.00 115.00 61.00
C 112.99 60.04 111.07 59.39 109.00 61.00 Z"/>
</g>
<g fill="#CFCFDF" fill-opacity="0.18" stroke="None">
<path d="
M 67.00 63.00 
C 65.63 65.05 64.55 67.66 64.00 70.00
C 66.16 67.31 67.71 63.94 70.00 61.00
C 69.27 61.71 67.72 62.19 67.00 63.00 Z"/>
</g>
<g fill="#A8A8BF" fill-opacity="0.35" stroke="None">
<path d="
M 103.00 62.00 
C 104.67 62.00 106.33 62.00 108.00 62.00
C 108.15 61.95 108.00 61.00 108.00 61.00
C 106.16 60.78 104.21 60.83 103.00 62.00 Z"/>
</g>
<g fill="#474678" fill-opacity="0.79" stroke="None">
<path d="
M 108.00 62.00 
C 111.00 62.00 114.00 62.00 117.00 62.00
C 116.90 61.98 117.00 61.00 117.00 61.00
C 116.50 61.00 115.50 61.00 115.00 61.00
C 113.00 61.00 111.00 61.00 109.00 61.00
C 109.00 61.00 108.49 61.06 108.00 61.00
C 108.00 61.00 108.15 61.95 108.00 62.00 Z"/>
</g>
<g fill="#8D8CAB" fill-opacity="0.47" stroke="None">
<path d="
M 117.00 62.00 
C 118.86 62.00 121.18 62.38 123.00 62.00
C 123.00 62.00 123.03 61.00 123.00 61.00
C 121.18 60.62 118.86 61.00 117.00 61.00
C 117.00 61.00 116.90 61.98 117.00 62.00 Z"/>
</g>
<g fill="#AEADC6" fill-opacity="0.31" stroke="None">
<path d="
M 92.00 71.00 
C 94.42 67.21 98.64 64.69 102.00 62.00
C 97.56 62.41 92.92 66.82 92.00 71.00 Z"/>
</g>
<g fill="#8887A7" fill-opacity="0.53" stroke="None">
<path d="
M 107.00 71.00 
C 108.59 70.78 110.39 71.00 112.00 71.00
C 110.01 69.25 108.91 70.46 107.00 71.00 Z"/>
</g>
<g fill="#ADADC4" fill-opacity="0.23" stroke="None">
<path d="
M 189.00 74.00 
C 188.48 72.44 187.57 71.28 187.00 70.00
C 187.52 71.63 188.38 72.67 189.00 74.00 Z"/>
</g>
<g fill="#B8B9CA" fill-opacity="0.27" stroke="None">
<path d="
M 62.00 77.00 
C 62.59 75.30 63.61 73.10 64.00 71.00
C 62.14 72.42 61.91 74.64 62.00 77.00 Z"/>
</g>
<g fill="#000000" fill-opacity="0.00" stroke="None">
<path d="
M 101.00 73.00 
C 97.47 75.42 96.26 80.99 97.00 85.00
C 97.62 86.80 98.74 88.08 99.00 90.00
C 102.62 91.51 108.14 96.70 111.00 99.00
C 111.00 99.00 111.50 99.00 112.00 99.00
C 114.67 99.00 117.33 99.00 120.00 99.00
C 120.00 99.00 120.50 99.01 121.00 99.00
C 126.79 95.97 129.72 93.59 129.00 86.00
C 129.00 86.00 129.07 85.49 129.00 85.00
C 127.58 83.23 126.44 80.93 125.00 79.00
C 124.02 77.68 123.27 76.95 122.00 76.00
C 119.18 73.90 115.81 72.47 113.00 71.00
C 113.00 71.00 112.50 71.00 112.00 71.00
C 110.39 71.00 108.59 70.78 107.00 71.00
C 105.25 71.49 102.54 72.18 101.00 73.00 Z"/>
</g>
<g fill="#C4C5D7" fill-opacity="0.22" stroke="None">
<path d="
M 122.00 76.00 
C 121.62 75.55 121.36 74.33 121.00 74.00
C 118.72 72.48 115.75 71.06 113.00 71.00
C 115.81 72.47 119.18 73.90 122.00 76.00 Z"/>
</g>
<g fill="#5F5F8B" fill-opacity="0.69" stroke="None">
<path d="
M 91.00 77.00 
C 90.95 78.66 91.00 80.34 91.00 82.00
C 91.00 83.00 90.97 84.00 91.00 85.00
C 91.27 85.25 92.00 85.00 92.00 85.00
C 91.71 80.71 92.00 76.30 92.00 72.00
C 90.61 73.44 91.06 74.92 91.00 77.00 Z"/>
</g>
<g fill="#BFBFD1" fill-opacity="0.25" stroke="None">
<path d="
M 97.00 85.00 
C 96.26 80.99 97.47 75.42 101.00 73.00
C 96.03 75.65 95.46 80.51 97.00 85.00 Z"/>
</g>
<g fill="#5B5B86" fill-opacity="0.66" stroke="None">
<path d="
M 122.00 76.00 
C 123.27 76.95 124.02 77.68 125.00 79.00
C 125.48 79.42 126.61 79.61 127.00 80.00
C 125.55 77.70 123.30 75.53 121.00 74.00
C 121.36 74.33 121.62 75.55 122.00 76.00 Z"/>
</g>
<g fill="#000000" fill-opacity="0.00" stroke="None">
<path d="
M 134.00 79.00 
C 134.53 80.94 135.90 82.49 136.00 85.00
C 136.02 85.50 136.00 86.50 136.00 87.00
C 137.22 89.58 136.41 90.65 136.00 93.00
C 135.87 95.06 135.73 96.16 135.00 98.00
C 133.73 101.19 130.16 105.45 127.00 107.00
C 127.00 107.00 126.43 106.83 126.00 107.00
C 124.40 109.56 121.63 110.03 119.00 111.00
C 115.26 112.38 112.06 113.74 108.00 114.00
C 106.09 114.34 103.48 114.82 101.00 115.00
C 96.67 115.31 93.56 115.29 89.00 115.00
C 86.81 114.86 84.57 114.28 83.00 114.00
C 80.39 113.89 78.40 113.40 76.00 113.00
C 72.60 112.42 68.85 112.35 66.00 111.00
C 66.00 111.00 65.02 110.90 65.00 111.00
C 64.80 111.89 65.69 114.13 66.00 115.00
C 68.53 122.11 71.72 128.87 74.00 136.00
C 74.90 138.02 76.42 139.55 77.00 142.00
C 77.00 142.00 76.89 142.53 77.00 143.00
C 78.45 144.81 79.44 146.60 80.00 149.00
C 80.00 149.00 79.89 149.53 80.00 150.00
C 81.61 152.01 82.85 154.53 84.00 157.00
C 87.81 156.94 91.06 154.69 95.00 155.00
C 99.33 153.34 103.61 152.28 108.00 151.00
C 112.73 149.05 118.34 145.64 123.00 143.00
C 124.29 142.27 125.82 141.65 127.00 141.00
C 134.98 135.46 144.67 124.81 148.00 116.00
C 148.41 114.45 148.81 112.54 149.00 111.00
C 149.51 106.81 149.00 102.23 149.00 98.00
C 149.00 98.00 148.99 97.50 149.00 97.00
C 147.93 95.51 147.69 93.83 147.00 92.00
C 146.40 90.41 145.68 88.46 145.00 87.00
C 142.27 82.41 137.29 78.49 134.00 74.00
C 132.51 74.64 133.77 77.61 134.00 79.00 Z"/>
</g>
<g fill="#C3C3D2" fill-opacity="0.22" stroke="None">
<path d="
M 145.00 87.00 
C 144.19 85.28 141.70 80.68 140.25 79.75 C 138.80 78.82 135.39 73.40 134.00 74.00
C 137.29 78.49 142.27 82.41 145.00 87.00 Z"/>
</g>
<g fill="#F7F7FB" fill-opacity="0.04" stroke="None">
<path d="
M 91.00 82.00 
C 91.00 80.34 90.95 78.66 91.00 77.00
C 90.74 78.92 90.56 79.94 91.00 82.00 Z"/>
</g>
<g fill="#B2B1C7" fill-opacity="0.31" stroke="None">
<path d="
M 62.00 95.00 
C 61.51 89.77 62.00 84.25 62.00 79.00
C 60.06 83.57 61.02 90.36 62.00 95.00 Z"/>
</g>
<g fill="#BDBDCD" fill-opacity="0.25" stroke="None">
<path d="
M 129.00 85.00 
C 128.80 83.52 128.12 81.09 127.00 80.00
C 126.61 79.61 125.48 79.42 125.00 79.00
C 126.44 80.93 127.58 83.23 129.00 85.00 Z"/>
</g>
<g fill="#B1B1C7" fill-opacity="0.31" stroke="None">
<path d="
M 136.00 85.00 
C 135.90 82.49 134.53 80.94 134.00 79.00
C 134.46 81.85 134.49 82.77 136.00 85.00 Z"/>
</g>
<g fill="#B8B8CD" fill-opacity="0.27" stroke="None">
<path d="
M 97.00 104.00 
C 95.93 97.43 92.46 91.80 92.00 85.00
C 92.00 85.00 91.27 85.25 91.00 85.00
C 91.19 90.71 93.37 99.77 97.00 104.00 Z"/>
</g>
<g fill="#A0A0B9" fill-opacity="0.30" stroke="None">
<path d="
M 8.00 91.00 
C 8.58 89.38 8.81 88.15 9.00 86.00
C 8.73 87.40 7.89 88.91 8.00 91.00 Z"/>
</g>
<g fill="#B5B5C9" fill-opacity="0.29" stroke="None">
<path d="
M 121.00 99.00 
C 126.93 98.88 132.97 91.37 129.00 86.00
C 129.72 93.59 126.79 95.97 121.00 99.00 Z"/>
</g>
<g fill="#F7F7FA" fill-opacity="0.05" stroke="None">
<path d="
M 136.00 93.00 
C 136.41 90.65 137.22 89.58 136.00 87.00
C 136.00 88.99 136.13 91.02 136.00 93.00 Z"/>
</g>
<g fill="#D5D5E3" fill-opacity="0.16" stroke="None">
<path d="
M 99.00 91.00 
C 100.96 92.37 102.30 94.67 104.00 96.00
C 106.05 97.37 108.66 98.45 111.00 99.00
C 108.14 96.70 102.62 91.51 99.00 90.00
C 99.00 90.00 98.80 90.60 99.00 91.00 Z"/>
</g>
<g fill="#B6B6C8" fill-opacity="0.21" stroke="None">
<path d="
M 192.00 96.00 
C 192.02 96.10 193.00 96.00 193.00 96.00
C 192.94 93.81 192.25 91.58 192.00 90.00
C 192.06 92.00 192.00 94.00 192.00 96.00 Z"/>
</g>
<g fill="#494879" fill-opacity="0.74" stroke="None">
<path d="
M 104.00 96.00 
C 102.30 94.67 100.96 92.37 99.00 91.00
C 99.99 93.02 102.13 94.76 104.00 96.00 Z"/>
</g>
<g fill="#CBCBD8" fill-opacity="0.21" stroke="None">
<path d="
M 149.00 97.00 
C 149.07 94.45 147.94 93.83 147.00 92.00
C 147.69 93.83 147.93 95.51 149.00 97.00 Z"/>
</g>
<g fill="#C7C6D8" fill-opacity="0.12" stroke="None">
<path d="
M 8.00 110.00 
C 8.00 104.33 8.00 98.67 8.00 93.00
C 6.23 97.16 6.20 105.78 8.00 110.00 Z"/>
</g>
<g fill="#595885" fill-opacity="0.52" stroke="None">
<path d="
M 192.00 108.00 
C 192.02 107.90 193.00 108.00 193.00 108.00
C 193.11 104.02 193.11 99.98 193.00 96.00
C 193.00 96.00 192.02 96.10 192.00 96.00
C 192.00 100.00 192.00 104.00 192.00 108.00 Z"/>
</g>
<g fill="#AFB0C7" fill-opacity="0.29" stroke="None">
<path d="
M 127.00 107.00 
C 130.16 105.45 133.73 101.19 135.00 98.00
C 133.42 101.10 129.18 103.88 127.00 107.00 Z"/>
</g>
<g fill="#DEDDE6" fill-opacity="0.14" stroke="None">
<path d="
M 149.00 111.00 
C 149.79 107.76 151.38 101.21 149.00 98.00
C 149.00 102.23 149.51 106.81 149.00 111.00 Z"/>
</g>
<g fill="#C5C4D4" fill-opacity="0.23" stroke="None">
<path d="
M 120.00 99.00 
C 117.33 99.00 114.67 99.00 112.00 99.00
C 114.03 100.50 117.93 100.53 120.00 99.00 Z"/>
</g>
<g fill="#B3B3C8" fill-opacity="0.30" stroke="None">
<path d="
M 89.00 111.00 
C 91.94 112.69 96.25 113.04 100.00 113.00
C 99.94 110.02 98.81 107.11 97.00 105.00
C 97.24 107.48 98.74 109.56 99.00 112.00
C 95.38 112.25 92.60 110.86 89.00 111.00 Z"/>
</g>
<g fill="#D9D9E6" fill-opacity="0.16" stroke="None">
<path d="
M 69.00 108.00 
C 68.41 107.88 64.64 106.76 64.00 106.00
C 65.53 108.42 66.49 107.41 69.00 108.00 Z"/>
</g>
<g fill="#CDCDDB" fill-opacity="0.19" stroke="None">
<path d="
M 119.00 111.00 
C 121.63 110.03 124.40 109.56 126.00 107.00
C 123.46 108.00 121.22 109.88 119.00 111.00 Z"/>
</g>
<g fill="#A9A9C3" fill-opacity="0.34" stroke="None">
<path d="
M 75.00 109.00 
C 73.14 107.41 71.40 108.50 69.00 108.00
C 70.74 108.41 72.56 109.26 75.00 109.00 Z"/>
</g>
<g fill="#C9C8D9" fill-opacity="0.17" stroke="None">
<path d="
M 192.00 114.00 
C 192.24 112.45 192.94 110.22 193.00 108.00
C 193.00 108.00 192.02 107.90 192.00 108.00
C 192.00 110.00 192.06 112.00 192.00 114.00 Z"/>
</g>
<g fill="#AEAEC6" fill-opacity="0.33" stroke="None">
<path d="
M 87.00 111.00 
C 83.88 110.06 79.79 108.75 76.00 109.00
C 79.11 110.36 83.11 111.27 87.00 111.00 Z"/>
</g>
<g fill="#A8A7C0" fill-opacity="0.35" stroke="None">
<path d="
M 66.00 115.00 
C 65.69 114.13 64.80 111.89 65.00 111.00
C 62.96 112.51 65.34 113.60 66.00 115.00 Z"/>
</g>
<g fill="#CACADB" fill-opacity="0.21" stroke="None">
<path d="
M 76.00 113.00 
C 72.86 112.11 69.95 110.57 66.00 111.00
C 68.85 112.35 72.60 112.42 76.00 113.00 Z"/>
</g>
<g fill="#A8A8C0" fill-opacity="0.26" stroke="None">
<path d="
M 9.00 117.00 
C 8.82 114.92 8.57 113.59 8.00 112.00
C 7.90 114.04 8.73 115.60 9.00 117.00 Z"/>
</g>
<g fill="#C4C4D6" fill-opacity="0.23" stroke="None">
<path d="
M 89.00 115.00 
C 89.02 115.00 89.00 114.00 89.00 114.00
C 87.01 114.00 84.99 114.09 83.00 114.00
C 84.57 114.28 86.81 114.86 89.00 115.00 Z"/>
</g>
<g fill="#696992" fill-opacity="0.65" stroke="None">
<path d="
M 89.00 115.00 
C 93.56 115.29 96.67 115.31 101.00 115.00
C 101.10 114.98 101.00 114.00 101.00 114.00
C 97.00 114.00 93.00 114.00 89.00 114.00
C 89.00 114.00 89.02 115.00 89.00 115.00 Z"/>
</g>
<g fill="#BBBBCE" fill-opacity="0.28" stroke="None">
<path d="
M 101.00 115.00 
C 103.48 114.82 106.09 114.34 108.00 114.00
C 105.69 114.15 103.32 114.00 101.00 114.00
C 101.00 114.00 101.10 114.98 101.00 115.00 Z"/>
</g>
<g fill="#CECEDC" fill-opacity="0.18" stroke="None">
<path d="
M 127.00 141.00 
C 129.06 139.86 131.08 138.42 133.00 137.00
C 135.19 135.09 138.06 132.10 140.00 130.00
C 143.35 125.76 146.61 121.22 148.00 116.00
C 144.67 124.81 134.98 135.46 127.00 141.00 Z"/>
</g>
<g fill="#504F7F" fill-opacity="0.70" stroke="None">
<path d="
M 133.00 137.00 
C 135.64 135.04 137.93 132.62 140.00 130.00
C 138.06 132.10 135.19 135.09 133.00 137.00 Z"/>
</g>
<g fill="#A9A8BF" fill-opacity="0.21" stroke="None">
<path d="
M 16.00 140.00 
C 15.43 138.41 14.68 137.33 14.00 136.00
C 14.57 137.54 15.35 138.70 16.00 140.00 Z"/>
</g>
<g fill="#B5B6CA" fill-opacity="0.28" stroke="None">
<path d="
M 77.00 142.00 
C 76.42 139.55 74.90 138.02 74.00 136.00
C 74.76 138.36 75.50 140.13 77.00 142.00 Z"/>
</g>
<g fill="#BEBED0" fill-opacity="0.25" stroke="None">
<path d="
M 80.00 149.00 
C 79.44 146.60 78.45 144.81 77.00 143.00
C 77.56 145.40 78.55 147.19 80.00 149.00 Z"/>
</g>
<g fill="#C5C5D5" fill-opacity="0.22" stroke="None">
<path d="
M 108.00 151.00 
C 113.53 149.39 118.51 146.20 123.00 143.00
C 118.34 145.64 112.73 149.05 108.00 151.00 Z"/>
</g>
<g fill="#ADADC4" fill-opacity="0.32" stroke="None">
<path d="
M 95.00 155.00 
C 91.06 154.69 87.81 156.94 84.00 157.00
C 82.85 154.53 81.61 152.01 80.00 150.00
C 80.12 152.98 82.87 155.05 83.00 158.00
C 87.24 158.02 91.47 156.35 95.00 155.00 Z"/>
</g>
<g fill="#A5A5BF" fill-opacity="0.20" stroke="None">
<path d="
M 42.00 174.00 
C 37.19 169.19 31.65 164.03 27.00 159.00
C 31.26 164.39 36.74 169.51 42.00 174.00 Z"/>
</g>
<g fill="#FBFBFE" fill-opacity="0.03" stroke="None">
<path d="
M 163.00 170.00 
C 165.51 167.85 167.81 165.56 170.00 163.00
C 167.79 165.21 165.26 167.74 163.00 170.00 Z"/>
</g>
<g fill="#B5B4C7" fill-opacity="0.20" stroke="None">
<path d="
M 126.00 191.00 
C 127.81 190.50 129.52 189.56 131.00 189.00
C 128.99 189.54 127.65 190.35 126.00 191.00 Z"/>
</g>
<g fill="#2A2962" fill-opacity="0.82" stroke="None">
<path d="
M 94.00 194.00 
C 94.50 194.00 95.50 194.00 96.00 194.00
C 98.67 194.00 101.33 194.00 104.00 194.00
C 104.50 194.00 105.50 194.00 106.00 194.00
C 106.23 193.66 106.00 193.00 106.00 193.00
C 101.92 193.00 97.40 193.67 94.00 194.00 Z"/>
</g>
<g fill="#8D8DAD" fill-opacity="0.36" stroke="None">
<path d="
M 106.00 194.00 
C 109.21 194.00 112.43 193.42 115.00 193.00
C 112.02 193.16 108.99 193.00 106.00 193.00
C 106.00 193.00 106.23 193.66 106.00 194.00 Z"/>
</g>
<g fill="#FCFCFC" fill-opacity="0.04" stroke="None">
<path d="
M 104.00 194.00 
C 101.33 194.00 98.67 194.00 96.00 194.00
C 98.76 195.17 101.19 195.20 104.00 194.00 Z"/>
</g>
</svg>